<svg width="142" height="54" viewBox="0 0 142 54" fill="none" xmlns="http://www.w3.org/2000/svg">
<g clip-path="url(#clip0_3_1634)">
<path d="M30.2102 0L18.7607 31.6961H12.2074L6.50403 15.8491H11.8798L15.4851 26.2196L24.6439 0H30.2102Z" fill="#403F3E"/>
<path d="M6.64538 0.792134H1.0876L0.802856 0H6.3692L6.64538 0.792134Z" fill="#403F3E"/>
<path d="M7.1977 2.37866H1.65918L2.22866 3.96293H7.74791L7.1977 2.37866Z" fill="#403F3E"/>
<path d="M8.29808 5.54736H2.7981L3.9392 8.7159H9.40064L8.29808 5.54736Z" fill="#403F3E"/>
<path d="M11.3274 14.2629H5.93451L4.50867 10.3022H9.95084L11.3274 14.2629Z" fill="#403F3E"/>
<path d="M33.1905 16.5857V19.7649H39.4141V23.8155H33.1905V27.2945H40.2297V31.5613H27.8361V12.3188H40.2297V16.5857H33.1905Z" fill="#403F3E"/>
<path d="M52.1352 31.5613L48.2495 24.4663H47.7057V31.5613H42.3513V12.3188H50.8036C52.3429 12.3188 53.6531 12.5865 54.7322 13.1217C55.809 13.6569 56.6204 14.3955 57.1642 15.3375C57.708 16.2795 57.9799 17.3393 57.9799 18.5168C57.9799 19.857 57.6074 21.0216 56.8645 22.0086C56.1216 22.9955 55.0533 23.6892 53.6574 24.0874L58.0334 31.5613H52.1352ZM47.7057 20.8803H50.3412C51.827 20.8803 52.5698 20.2102 52.5698 18.8679C52.5698 18.2342 52.3836 17.7353 52.0132 17.3735C51.6407 17.0117 51.0841 16.8297 50.3412 16.8297H47.7057V20.8803Z" fill="#403F3E"/>
<path d="M72.3582 28.3542H65.5352L64.4754 31.5612H58.8491L65.8884 12.4001H72.0585L79.0699 31.5612H73.4158L72.3561 28.3542H72.3582ZM71.0266 24.3314L68.9606 18.08L66.8668 24.3314H71.0244H71.0266Z" fill="#403F3E"/>
<path d="M92.32 13.0381C93.6153 13.6461 94.6707 14.5068 95.4864 15.6201C96.3021 16.7333 96.8545 18.0264 97.1435 19.493H91.5172C91.2089 18.7329 90.7293 18.1378 90.0764 17.7117C89.4234 17.2857 88.6719 17.0737 87.8199 17.0737C86.6424 17.0737 85.6897 17.5126 84.966 18.3925C84.2403 19.2724 83.8785 20.4435 83.8785 21.9122C83.8785 23.3808 84.2403 24.5583 84.966 25.4447C85.6897 26.3331 86.6424 26.7763 87.8199 26.7763C88.6719 26.7763 89.4234 26.5579 90.0764 26.1233C90.7293 25.6887 91.2089 25.0914 91.5172 24.3293H97.1435C96.7089 26.5772 95.6791 28.3649 94.0584 29.6965C92.4356 31.0281 90.3847 31.694 87.9012 31.694C85.9979 31.694 84.3366 31.2829 82.9129 30.4565C81.4892 29.6323 80.3931 28.4762 79.6245 26.9904C78.8538 25.5046 78.4684 23.8112 78.4684 21.9079C78.4684 20.0046 78.8538 18.3112 79.6245 16.8254C80.3952 15.3396 81.4913 14.1857 82.9129 13.3593C84.3345 12.535 85.9979 12.1218 87.9012 12.1218C89.5497 12.1218 91.0226 12.4258 92.3179 13.0317L92.32 13.0381Z" fill="#403F3E"/>
<path d="M104.485 12.3188V31.5613H99.1302V12.3188H104.485Z" fill="#403F3E"/>
<path d="M122.124 12.3188V16.5857H116.932V31.5613H111.605V16.5857H106.467V12.3188H122.124Z" fill="#403F3E"/>
<path d="M141.991 12.3188L135.196 25.4469V31.5634H129.869V25.4469L123.074 12.3188H129.191L132.588 19.6579L135.958 12.3188H141.991Z" fill="#403F3E"/>
<path d="M8.54651 38.0181L11.8863 47.6286L15.2433 38.0181H17.2835L13.0874 49.6367H10.6853L6.50623 38.0181H8.54651Z" fill="#403F3E"/>
<path d="M20.3621 39.5319V43.0537H24.6418V44.5009H20.3621V48.104H25.1342V49.6348H18.4867V38.0161H25.1342V39.5297H20.3621V39.5319Z" fill="#403F3E"/>
<path d="M36.1599 49.6367H34.2844L28.6389 41.0624V49.6367H26.7634V38.0352H28.6389L34.2844 46.6416V38.0352H36.1599V49.6367Z" fill="#403F3E"/>
<path d="M45.704 38.0181V39.5317H42.4626V49.6367H40.5701V39.5317H37.3438V38.0181H45.704Z" fill="#403F3E"/>
<path d="M48.6992 38.0181V44.9139C48.6992 45.9458 48.9261 46.7144 49.3821 47.2175C49.8381 47.7228 50.4761 47.9754 51.3004 47.9754C52.1246 47.9754 52.7455 47.7228 53.2015 47.2175C53.6575 46.7123 53.8844 45.9458 53.8844 44.9139V38.0181H55.7599V44.9139C55.7599 46.5046 55.3488 47.7099 54.5267 48.5256C53.7046 49.3434 52.617 49.7524 51.2682 49.7524C49.9195 49.7524 48.8554 49.3434 48.0419 48.5256C47.2305 47.7078 46.8237 46.5046 46.8237 44.9139V38.0181H48.6992Z" fill="#403F3E"/>
<path d="M63.8567 49.6367L60.9601 44.9953H59.6263V49.6367H57.7509V38.0181H61.8485C63.1759 38.0181 64.1821 38.3413 64.8694 38.99C65.5544 39.6366 65.897 40.493 65.897 41.557C65.897 42.4669 65.6422 43.214 65.1327 43.7942C64.6232 44.3765 63.8845 44.7491 62.919 44.9139L65.9634 49.6367H63.8567ZM59.6284 43.6636H61.703C63.2166 43.6636 63.9745 42.9957 63.9745 41.6555C63.9745 41.0196 63.7903 40.5229 63.4221 40.1654C63.0539 39.81 62.4822 39.6302 61.703 39.6302H59.6284V43.6615V43.6636Z" fill="#403F3E"/>
<path d="M69.2711 39.5319V43.0537H73.5508V44.5009H69.2711V48.104H74.0432V49.6348H67.3936V38.0161H74.0432V39.5297H69.2711V39.5319Z" fill="#403F3E"/>
<path d="M82.8979 48.1296C82.6238 48.6177 82.2064 49.0095 81.6476 49.3071C81.0888 49.6025 80.4016 49.7524 79.5902 49.7524C78.7788 49.7524 78.0915 49.6132 77.4664 49.3328C76.8413 49.0523 76.3424 48.6605 75.9678 48.1553C75.5953 47.65 75.3812 47.0698 75.3255 46.4104H77.3337C77.3893 46.9157 77.6056 47.3481 77.9845 47.71C78.3634 48.0718 78.8708 48.2537 79.5067 48.2537C80.0762 48.2537 80.5193 48.0996 80.8319 47.7934C81.1445 47.4873 81.3008 47.0912 81.3008 46.6095C81.3008 46.1921 81.1852 45.8495 80.9561 45.5819C80.7249 45.3143 80.4401 45.1023 80.0997 44.9482C79.7593 44.794 79.2926 44.6185 78.7017 44.4215C77.9781 44.1903 77.3872 43.9612 76.9333 43.73C76.4773 43.4988 76.0919 43.1648 75.7729 42.7259C75.454 42.287 75.2955 41.7111 75.2955 40.9982C75.2955 40.3731 75.4497 39.825 75.7558 39.3519C76.062 38.8809 76.5009 38.5148 77.0725 38.2579C77.642 38.001 78.3014 37.8704 79.0464 37.8704C80.2303 37.8704 81.1723 38.1551 81.8681 38.7267C82.5639 39.2983 82.9621 40.0434 83.0606 40.964H81.0353C80.9582 40.5251 80.7527 40.1504 80.4187 39.8357C80.0847 39.5231 79.6266 39.3669 79.0442 39.3669C78.5176 39.3669 78.0958 39.5017 77.7768 39.7693C77.4578 40.0391 77.2994 40.4245 77.2994 40.9297C77.2994 41.3236 77.4086 41.6512 77.6291 41.9081C77.8475 42.1672 78.1258 42.3684 78.4598 42.5161C78.7938 42.6638 79.2519 42.8373 79.8342 43.0342C80.5686 43.2654 81.1702 43.4988 81.6369 43.7343C82.1036 43.9698 82.4975 44.3123 82.8229 44.7619C83.1462 45.2115 83.3089 45.8045 83.3089 46.5389C83.3089 47.1105 83.1719 47.6393 82.8979 48.1274V48.1296Z" fill="#403F3E"/>
<path d="M83.3089 52.5869H6.50403V53.9999H83.3089V52.5869Z" fill="#D51A3C"/>
</g>
<defs>
<clipPath id="clip0_3_1634">
<rect width="141.188" height="54" fill="white" transform="translate(0.802856)"/>
</clipPath>
</defs>
</svg>
