<svg width="140" height="54" viewBox="0 0 140 54" fill="none" xmlns="http://www.w3.org/2000/svg">
<g clip-path="url(#clip0_3_1544)">
<path d="M29.1599 0L17.8067 31.4293H11.3086L5.6532 15.7157H10.9838L14.5587 25.999L23.6404 0H29.1599Z" fill="#403F3E"/>
<path d="M5.79335 0.785467H0.282344L0 0H5.5195L5.79335 0.785467Z" fill="#403F3E"/>
<path d="M6.34102 2.35864H0.849121L1.41381 3.92958H6.8866L6.34102 2.35864Z" fill="#403F3E"/>
<path d="M7.43221 5.50024H1.97852L3.11001 8.64211H8.52549L7.43221 5.50024Z" fill="#403F3E"/>
<path d="M10.4361 14.1427H5.08852L3.67468 10.2153H9.07106L10.4361 14.1427Z" fill="#403F3E"/>
<path d="M32.115 16.446V19.5985H38.2862V23.615H32.115V27.0647H39.095V31.2956H26.8057V12.2151H39.095V16.446H32.115Z" fill="#403F3E"/>
<path d="M50.9004 31.2956L47.0474 24.2603H46.5082V31.2956H41.1989V12.2151H49.58C51.1064 12.2151 52.4056 12.4804 53.4755 13.0112C54.5433 13.5419 55.3479 14.2743 55.8871 15.2084C56.4263 16.1424 56.6959 17.1933 56.6959 18.3608C56.6959 19.6898 56.3265 20.8446 55.5899 21.8233C54.8532 22.8019 53.7939 23.4897 52.4098 23.8846L56.749 31.2956H50.9004ZM46.5082 20.7045H49.1215C50.5947 20.7045 51.3314 20.04 51.3314 18.709C51.3314 18.0806 51.1467 17.586 50.7794 17.2272C50.41 16.8685 49.8581 16.688 49.1215 16.688H46.5082V20.7045Z" fill="#403F3E"/>
<path d="M70.9531 28.1154H64.1875L63.1367 31.2955H57.5577L64.5378 12.2957H70.6559L77.6084 31.2955H72.0018L70.951 28.1154H70.9531ZM69.6327 24.1265L67.5841 17.9277L65.5079 24.1265H69.6306H69.6327Z" fill="#403F3E"/>
<path d="M90.7469 12.9284C92.0313 13.5313 93.0778 14.3847 93.8867 15.4886C94.6955 16.5946 95.2432 17.8747 95.5298 19.3289H89.9508C89.6451 18.5752 89.1696 17.9851 88.5221 17.5626C87.8746 17.1402 87.1295 16.93 86.2846 16.93C85.117 16.93 84.1723 17.3652 83.4548 18.2377C82.7351 19.1102 82.3764 20.2714 82.3764 21.7277C82.3764 23.184 82.7351 24.3516 83.4548 25.2305C84.1723 26.1115 85.117 26.5509 86.2846 26.5509C87.1295 26.5509 87.8746 26.3344 88.5221 25.9034C89.1696 25.4725 89.6451 24.8802 89.9508 24.1245H95.5298C95.0988 26.3535 94.0777 28.1261 92.4707 29.4465C90.8615 30.767 88.8278 31.4272 86.3653 31.4272C84.478 31.4272 82.8307 31.0196 81.419 30.2002C80.0072 29.3828 78.9203 28.2365 78.1582 26.7632C77.394 25.2899 77.0118 23.6107 77.0118 21.7235C77.0118 19.8362 77.394 18.157 78.1582 16.6838C78.9224 15.2105 80.0094 14.0662 81.419 13.2468C82.8285 12.4295 84.478 12.0198 86.3653 12.0198C87.9999 12.0198 89.4604 12.3212 90.7448 12.922L90.7469 12.9284Z" fill="#403F3E"/>
<path d="M102.809 12.2151V31.2956H97.4999V12.2151H102.809Z" fill="#403F3E"/>
<path d="M120.3 12.2151V16.446H115.152V31.2956H109.87V16.446H104.775V12.2151H120.3Z" fill="#403F3E"/>
<path d="M140 12.2151L133.262 25.2326V31.2956H127.98V25.2326L121.242 12.2151H127.307L130.676 19.4923L134.018 12.2151H140Z" fill="#403F3E"/>
<path d="M15.6988 46.4848C15.2254 47.3488 14.5354 48.0218 13.6268 48.4994C12.7182 48.9771 11.6334 49.2169 10.3724 49.2169H6.51941V37.696H10.3703C11.6313 37.696 12.7182 37.9317 13.6247 38.4051C14.5333 38.8785 15.2232 39.5451 15.6966 40.4048C16.17 41.2646 16.4057 42.2751 16.4057 43.4406C16.4057 44.606 16.17 45.6186 15.6966 46.4848H15.6988ZM13.406 46.4593C14.1448 45.7418 14.5163 44.7355 14.5163 43.4406C14.5163 42.1456 14.1469 41.1394 13.406 40.4218C12.6652 39.7043 11.6058 39.3455 10.2238 39.3455H8.37906V47.5377H10.2238C11.6058 47.5377 12.6652 47.179 13.406 46.4614V46.4593Z" fill="#403F3E"/>
<path d="M19.9488 37.6982V49.2191H18.0891V37.6982H19.9488Z" fill="#403F3E"/>
<path d="M30.7033 38.611C31.6161 39.2861 32.2212 40.2053 32.5141 41.3687H30.5568C30.3063 40.7488 29.8966 40.2541 29.3255 39.8826C28.7545 39.5133 28.0773 39.3286 27.2939 39.3286C26.5764 39.3286 25.931 39.4963 25.36 39.8338C24.7889 40.1713 24.3431 40.649 24.0226 41.2689C23.702 41.8888 23.5407 42.6169 23.5407 43.4554C23.5407 44.3364 23.7041 45.0922 24.0311 45.7227C24.358 46.3532 24.8165 46.8351 25.4109 47.1662C26.0032 47.4974 26.691 47.663 27.4744 47.663C28.4318 47.663 29.2534 47.3658 29.939 46.7735C30.6247 46.1812 31.0387 45.3682 31.1788 44.3343H26.9522V42.9629H32.7455V44.7419C32.6139 45.5911 32.3124 46.3596 31.839 47.0516C31.3656 47.7416 30.7394 48.2956 29.9624 48.7075C29.1854 49.1214 28.2959 49.3273 27.2939 49.3273C26.1731 49.3273 25.1838 49.0768 24.324 48.5758C23.4643 48.0748 22.8019 47.3828 22.3328 46.4954C21.8657 45.6081 21.6322 44.5933 21.6322 43.4512C21.6322 42.3091 21.8657 41.2944 22.3328 40.407C22.7998 39.5196 23.4621 38.8297 24.3155 38.3351C25.1689 37.8404 26.1561 37.592 27.277 37.592C28.6483 37.592 29.7904 37.9296 30.7033 38.6047V38.611Z" fill="#403F3E"/>
<path d="M36.2843 37.6982V49.2191H34.4247V37.6982H36.2843Z" fill="#403F3E"/>
<path d="M45.7482 37.6982V39.1991H42.5342V49.2191H40.6576V39.1991H37.4584V37.6982H45.7482Z" fill="#403F3E"/>
<path d="M53.8088 46.7226H48.9453L48.0643 49.2191H46.073L50.3166 37.8787H52.4544L56.6811 49.2191H54.6898L53.8088 46.7226ZM53.2866 45.2875L51.3781 39.9018L49.4696 45.2875H53.2887H53.2866Z" fill="#403F3E"/>
<path d="M59.7338 47.7649H63.7163V49.2169H57.8741V37.696H59.7338V47.7649Z" fill="#403F3E"/>
<path d="M63.7141 52.1443H5.6532V53.5454H63.7141V52.1443Z" fill="#4A89C8"/>
</g>
<defs>
<clipPath id="clip0_3_1544">
<rect width="140" height="53.5455" fill="white"/>
</clipPath>
</defs>
</svg>
