<svg width="95" height="37" viewBox="0 0 95 37" fill="none" xmlns="http://www.w3.org/2000/svg">
<g clip-path="url(#clip0_7_1671)">
<path d="M19.7869 0L12.083 21.327H7.67351L3.83594 10.6642H7.45311L9.87896 17.6422L16.0415 0H19.7869Z" fill="white"/>
<path d="M3.9312 0.532996H0.19159L0 0H3.74537L3.9312 0.532996Z" fill="white"/>
<path d="M4.30258 1.60059H0.575928L0.959108 2.66658H4.67279L4.30258 1.60059Z" fill="white"/>
<path d="M5.04325 3.73242H1.34253L2.11033 5.8644H5.78512L5.04325 3.73242Z" fill="white"/>
<path d="M7.08125 9.59662H3.45256L2.49316 6.93164H6.15499L7.08125 9.59662Z" fill="white"/>
<path d="M21.792 11.1595V13.2987H25.9796V16.0242H21.792V18.3651H26.5284V21.236H18.1892V8.28857H26.5284V11.1595H21.792Z" fill="white"/>
<path d="M34.539 21.236L31.9245 16.4621H31.5586V21.236H27.9558V8.28857H33.643C34.6788 8.28857 35.5604 8.46864 36.2864 8.82877C37.011 9.1889 37.5569 9.68589 37.9228 10.3197C38.2887 10.9536 38.4717 11.6666 38.4717 12.4589C38.4717 13.3607 38.221 14.1443 37.7212 14.8084C37.2213 15.4725 36.5025 15.9392 35.5632 16.2072L38.5077 21.236H34.539ZM31.5586 14.0492H33.3319C34.3316 14.0492 34.8315 13.5984 34.8315 12.6952C34.8315 12.2688 34.7061 11.9331 34.4569 11.6897C34.2063 11.4462 33.8317 11.3238 33.3319 11.3238H31.5586V14.0492Z" fill="white"/>
<path d="M48.1461 19.0783H43.5552L42.8421 21.2362H39.0564L43.7929 8.34351H47.9445L52.6622 21.2362H48.8578L48.1447 19.0783H48.1461ZM47.2501 16.3716L45.86 12.1652L44.4512 16.3716H47.2487H47.2501Z" fill="white"/>
<path d="M61.578 8.7728C62.4496 9.18191 63.1597 9.761 63.7086 10.5101C64.2574 11.2606 64.6291 12.1292 64.8235 13.116H61.0378C60.8304 12.6046 60.5077 12.2041 60.0684 11.9175C59.629 11.6308 59.1234 11.4882 58.55 11.4882C57.7578 11.4882 57.1167 11.7835 56.6298 12.3756C56.1415 12.9676 55.898 13.7556 55.898 14.7438C55.898 15.732 56.1415 16.5243 56.6298 17.1207C57.1167 17.7185 57.7578 18.0167 58.55 18.0167C59.1234 18.0167 59.629 17.8697 60.0684 17.5773C60.5077 17.2849 60.8304 16.883 61.0378 16.3701H64.8235C64.5311 17.8827 63.8382 19.0855 62.7477 19.9816C61.6558 20.8776 60.2758 21.3256 58.6048 21.3256C57.3242 21.3256 56.2063 21.049 55.2484 20.4929C54.2904 19.9383 53.5529 19.1604 53.0357 18.1607C52.5171 17.161 52.2578 16.0215 52.2578 14.7409C52.2578 13.4603 52.5171 12.3208 53.0357 11.3211C53.5543 10.3214 54.2918 9.54492 55.2484 8.98888C56.2049 8.43427 57.3242 8.15625 58.6048 8.15625C59.714 8.15625 60.7051 8.36081 61.5766 8.76847L61.578 8.7728Z" fill="white"/>
<path d="M69.7629 8.28857V21.236H66.1602V8.28857H69.7629Z" fill="white"/>
<path d="M81.6313 8.28857V11.1595H78.138V21.236H74.5539V11.1595H71.0967V8.28857H81.6313Z" fill="white"/>
<path d="M94.9998 8.28857L90.4275 17.1219V21.236H86.8435V17.1219L82.2712 8.28857H86.3868L88.673 13.2267L90.9403 8.28857H94.9998Z" fill="white"/>
<path d="M10.326 26.2002C10.9454 26.6583 11.356 27.2821 11.5548 28.0715H10.2266C10.0566 27.6509 9.77861 27.3152 9.39111 27.0631C9.0036 26.8125 8.54408 26.6871 8.01252 26.6871C7.52562 26.6871 7.0877 26.8009 6.7002 27.03C6.3127 27.259 6.01019 27.5831 5.79267 28.0038C5.57515 28.4244 5.46567 28.9185 5.46567 29.4875C5.46567 30.0853 5.57659 30.5982 5.79843 31.026C6.02027 31.4539 6.33142 31.7809 6.73477 32.0056C7.13668 32.2303 7.60341 32.3427 8.13497 32.3427C8.78464 32.3427 9.34213 32.141 9.80742 31.7391C10.2727 31.3372 10.5536 30.7854 10.6487 30.0839H7.7806V29.1533H11.7118V30.3605C11.6239 30.9367 11.4179 31.4582 11.0967 31.9278C10.7755 32.396 10.3505 32.7719 9.82327 33.0514C9.29603 33.3323 8.69245 33.472 8.01252 33.472C7.25192 33.472 6.58064 33.3021 5.99722 32.9621C5.41381 32.6221 4.96292 32.1525 4.646 31.5504C4.32909 30.9482 4.16919 30.2597 4.16919 29.4846C4.16919 28.7096 4.32765 28.0211 4.646 27.4189C4.96292 26.8168 5.41237 26.3486 5.99146 26.013C6.57055 25.6773 7.2404 25.5088 8.001 25.5088C8.93158 25.5088 9.70658 25.7378 10.326 26.1959V26.2002Z" fill="white"/>
<path d="M16.958 33.3986L15.009 30.2755H14.1115V33.3986H12.8496V25.5808H15.6068C16.4999 25.5808 17.177 25.7983 17.6394 26.2348C18.1003 26.6698 18.3308 27.2461 18.3308 27.962C18.3308 28.5742 18.1594 29.077 17.8166 29.4674C17.4737 29.8592 16.9767 30.1098 16.327 30.2208L18.3755 33.3986H16.958ZM14.1115 29.3795H15.5074C16.5258 29.3795 17.0358 28.9286 17.0358 28.0283C17.0358 27.6004 16.9119 27.2662 16.6656 27.0257C16.4178 26.7865 16.0317 26.6655 15.5088 26.6655H14.113V29.378L14.1115 29.3795Z" fill="white"/>
<path d="M24.9261 25.9899C25.5124 26.3299 25.9748 26.8038 26.3104 27.4132C26.6461 28.0225 26.8146 28.7111 26.8146 29.4789C26.8146 30.2467 26.6461 30.9353 26.3104 31.5446C25.9748 32.154 25.5138 32.6293 24.9261 32.9736C24.3398 33.3165 23.6843 33.4879 22.9612 33.4879C22.238 33.4879 21.5711 33.3165 20.9848 32.9736C20.3985 32.6308 19.9346 32.154 19.5947 31.5446C19.2547 30.9353 19.0847 30.2467 19.0847 29.4789C19.0847 28.7111 19.2547 28.0225 19.5947 27.4132C19.9346 26.8038 20.397 26.3299 20.9848 25.9899C21.5711 25.65 22.2308 25.48 22.9612 25.48C23.6915 25.48 24.3398 25.65 24.9261 25.9899ZM21.62 26.9983C21.2282 27.2273 20.9243 27.5558 20.7068 27.9836C20.4892 28.4115 20.3798 28.9099 20.3798 29.4789C20.3798 30.0479 20.4892 30.5463 20.7068 30.9742C20.9243 31.402 21.2282 31.7304 21.62 31.9595C22.0119 32.1885 22.4584 32.3023 22.9597 32.3023C23.461 32.3023 23.8961 32.1885 24.2836 31.9595C24.6711 31.7304 24.9736 31.402 25.1911 30.9742C25.4086 30.5463 25.5181 30.0479 25.5181 29.4789C25.5181 28.9099 25.4086 28.4129 25.1911 27.9836C24.9736 27.5558 24.6711 27.2273 24.2836 26.9983C23.8961 26.7693 23.4553 26.6555 22.9597 26.6555C22.4642 26.6555 22.0104 26.7707 21.62 26.9983Z" fill="white"/>
<path d="M29.1608 25.5808V30.2208C29.1608 30.9151 29.3135 31.4322 29.6204 31.7708C29.9272 32.1107 30.3565 32.2807 30.9111 32.2807C31.4657 32.2807 31.8834 32.1107 32.1903 31.7708C32.4971 31.4308 32.6498 30.9151 32.6498 30.2208V25.5808H33.9117V30.2208C33.9117 31.2911 33.6351 32.1021 33.0819 32.6509C32.5288 33.2012 31.797 33.4763 30.8895 33.4763C29.9819 33.4763 29.266 33.2012 28.7186 32.6509C28.1726 32.1006 27.8989 31.2911 27.8989 30.2208V25.5808H29.1608Z" fill="white"/>
<path d="M36.5131 30.3631V33.3969H35.2512V25.5791H37.909C38.8093 25.5791 39.4864 25.7937 39.9416 26.2216C40.3953 26.6494 40.623 27.2371 40.623 27.9819C40.623 28.7267 40.391 29.3014 39.9257 29.7264C39.4604 30.1513 38.7892 30.3631 37.9104 30.3631H36.5146H36.5131ZM39.3366 27.9819C39.3366 27.5397 39.2127 27.2011 38.9649 26.9692C38.7171 26.7373 38.321 26.6206 37.775 26.6206H36.5131V29.3331H37.775C38.8165 29.3331 39.3366 28.8822 39.3366 27.9819Z" fill="white"/>
<path d="M40.6213 35.3835H3.83594V36.3343H40.6213V35.3835Z" fill="white"/>
</g>
<defs>
<clipPath id="clip0_7_1671">
<rect width="95" height="36.3345" fill="white"/>
</clipPath>
</defs>
</svg>
