<svg width="144" height="55" viewBox="0 0 144 55" fill="none" xmlns="http://www.w3.org/2000/svg">
<g clip-path="url(#clip0_3_1572)">
<path d="M29.952 0L18.2904 32.283H11.6157L5.80676 16.1426H11.2821L14.9542 26.7052L24.2826 0H29.952Z" fill="#403F3E"/>
<path d="M5.95072 0.806803H0.290013L0 0H5.66943L5.95072 0.806803Z" fill="#403F3E"/>
<path d="M6.51327 2.42261H0.872192L1.45222 4.03621H7.07368L6.51327 2.42261Z" fill="#403F3E"/>
<path d="M7.63406 5.6499H2.03223L3.19446 8.87712H8.75704L7.63406 5.6499Z" fill="#403F3E"/>
<path d="M10.7196 14.5269H5.22678L3.77454 10.4929H9.31749L10.7196 14.5269Z" fill="#403F3E"/>
<path d="M32.9874 16.8927V20.1308H39.3262V24.2564H32.9874V27.7998H40.157V32.1457H27.5338V12.5469H40.157V16.8927H32.9874Z" fill="#403F3E"/>
<path d="M52.2831 32.1457L48.3254 24.9193H47.7715V32.1457H42.318V12.5469H50.9268C52.4946 12.5469 53.8291 12.8194 54.9281 13.3646C56.0249 13.9097 56.8514 14.662 57.4052 15.6214C57.9591 16.5809 58.236 17.6603 58.236 18.8596C58.236 20.2246 57.8566 21.4108 57.0999 22.416C56.3433 23.4213 55.2552 24.1278 53.8335 24.5334L58.2905 32.1457H52.2831ZM47.7715 21.2669H50.4558C51.9691 21.2669 52.7258 20.5844 52.7258 19.2172C52.7258 18.5717 52.536 18.0637 52.1588 17.6952C51.7794 17.3266 51.2125 17.1413 50.4558 17.1413H47.7715V21.2669Z" fill="#403F3E"/>
<path d="M72.8805 28.8793H65.9311L64.8517 32.1458H59.1212L66.2909 12.6299H72.5752L79.7165 32.1458H73.9577L72.8783 28.8793H72.8805ZM71.5242 24.7821L69.4199 18.4149L67.2874 24.7821H71.522H71.5242Z" fill="#403F3E"/>
<path d="M93.2119 13.2795C94.5311 13.8987 95.6062 14.7753 96.437 15.9092C97.2677 17.0453 97.8303 18.3601 98.1247 19.8538H92.3942C92.0802 19.0797 91.5918 18.4735 90.9267 18.0396C90.2616 17.6057 89.4963 17.3898 88.6284 17.3898C87.4291 17.3898 86.4588 17.8368 85.7217 18.733C84.9825 19.6292 84.614 20.822 84.614 22.3178C84.614 23.8137 84.9825 25.013 85.7217 25.9158C86.4588 26.8207 87.4291 27.2721 88.6284 27.2721C89.4963 27.2721 90.2616 27.0496 90.9267 26.607C91.5918 26.1643 92.0802 25.556 92.3942 24.7797H98.1247C97.682 27.0693 96.6332 28.89 94.9825 30.2463C93.3297 31.6026 91.2407 32.2808 88.7113 32.2808C86.7728 32.2808 85.0806 31.8621 83.6306 31.0204C82.1805 30.1809 81.0641 29.0034 80.2813 27.4901C79.4963 25.9768 79.1038 24.252 79.1038 22.3135C79.1038 20.375 79.4963 18.6502 80.2813 17.1369C81.0663 15.6236 82.1827 14.4482 83.6306 13.6065C85.0785 12.767 86.7728 12.3462 88.7113 12.3462C90.3903 12.3462 91.8905 12.6558 93.2097 13.2729L93.2119 13.2795Z" fill="#403F3E"/>
<path d="M105.602 12.5469V32.1457H100.148V12.5469H105.602Z" fill="#403F3E"/>
<path d="M123.567 12.5469V16.8927H118.28V32.1457H112.854V16.8927H107.621V12.5469H123.567Z" fill="#403F3E"/>
<path d="M143.803 12.5469L136.882 25.918V32.1457H131.457V25.918L124.536 12.5469H130.765L134.226 20.0218L137.658 12.5469H143.803Z" fill="#403F3E"/>
<path d="M14.0537 49.021C13.7746 49.5181 13.3494 49.9172 12.7802 50.2203C12.2111 50.5212 11.5112 50.6738 10.6847 50.6738C9.8583 50.6738 9.15834 50.5321 8.52162 50.2464C7.8849 49.9608 7.37684 49.5617 6.99524 49.0471C6.61582 48.5325 6.39777 47.9416 6.34107 47.27H8.38643C8.44312 47.7846 8.66336 48.2251 9.04932 48.5936C9.43527 48.9621 9.95206 49.1474 10.5997 49.1474C11.1797 49.1474 11.6311 48.9904 11.9494 48.6786C12.2678 48.3668 12.427 47.9634 12.427 47.4728C12.427 47.0476 12.3092 46.6987 12.0759 46.4261C11.8404 46.1514 11.5504 45.9377 11.2037 45.7807C10.857 45.6237 10.3816 45.4449 9.7798 45.2443C9.04277 45.0088 8.44094 44.7754 7.97867 44.5399C7.51421 44.3044 7.12171 43.9643 6.79681 43.5173C6.47191 43.0703 6.31055 42.4837 6.31055 41.7576C6.31055 41.1208 6.46755 40.5626 6.77936 40.0807C7.09118 39.601 7.5382 39.2281 8.1204 38.9665C8.70043 38.7048 9.37204 38.5718 10.1309 38.5718C11.3367 38.5718 12.2962 38.8618 13.0048 39.444C13.7135 40.0262 14.1191 40.785 14.2194 41.7227H12.1566C12.0781 41.2757 11.8688 40.8941 11.5286 40.5735C11.1884 40.2552 10.7218 40.096 10.1287 40.096C9.59227 40.096 9.1627 40.2334 8.8378 40.5059C8.5129 40.7807 8.35154 41.1732 8.35154 41.6878C8.35154 42.089 8.46275 42.4226 8.68735 42.6843C8.90976 42.946 9.19323 43.1531 9.5334 43.3036C9.87356 43.454 10.3402 43.6307 10.9333 43.8313C11.6812 44.0668 12.294 44.3044 12.7693 44.5443C13.2447 44.7842 13.6459 45.1331 13.9752 45.591C14.3044 46.0489 14.4702 46.6529 14.4702 47.4008C14.4702 47.983 14.3306 48.5216 14.0515 49.0188L14.0537 49.021Z" fill="#403F3E"/>
<path d="M18.0942 40.2638V43.8508H22.4532V45.3249H18.0942V48.9947H22.9547V50.5538H16.1841V38.72H22.9547V40.2616H18.0942V40.2638Z" fill="#403F3E"/>
<path d="M30.8331 50.556L27.8828 45.8286H26.5243V50.556H24.6141V38.7222H28.7877C30.1396 38.7222 31.1645 39.0514 31.8645 39.7121C32.5622 40.3707 32.9111 41.2429 32.9111 42.3266C32.9111 43.2533 32.6516 44.0144 32.1327 44.6053C31.6137 45.1984 30.8614 45.5778 29.878 45.7457L32.9787 50.556H30.8331ZM26.5243 44.4723H28.6373C30.1789 44.4723 30.9508 43.7898 30.9508 42.4269C30.9508 41.7793 30.7633 41.2734 30.3904 40.9093C30.0154 40.5473 29.431 40.3641 28.6394 40.3641H26.5265V44.4701L26.5243 44.4723Z" fill="#403F3E"/>
<path d="M35.6259 38.7222L39.0276 48.5107L42.4467 38.7222H44.5247L40.2509 50.556H37.8043L33.5479 38.7222H35.6259Z" fill="#403F3E"/>
<path d="M47.6603 38.7222V50.556H45.7501V38.7222H47.6603Z" fill="#403F3E"/>
<path d="M58.6743 39.71C59.6359 40.447 60.2835 41.4479 60.6193 42.7104H58.5914C58.3123 41.9952 57.8675 41.4283 57.2591 41.0096C56.6507 40.5909 55.905 40.3816 55.0219 40.3816C54.3176 40.3816 53.6896 40.556 53.1357 40.9006C52.5818 41.2473 52.1457 41.7423 51.8274 42.3833C51.509 43.0266 51.3498 43.7767 51.3498 44.638C51.3498 45.4993 51.509 46.2342 51.8274 46.8753C52.1457 47.5185 52.5818 48.0135 53.1357 48.358C53.6896 48.7047 54.3176 48.877 55.0219 48.877C55.905 48.877 56.6507 48.6677 57.2591 48.249C57.8675 47.8303 58.3123 47.2678 58.5914 46.5634H60.6193C60.2835 47.826 59.6359 48.8247 58.6743 49.5552C57.7127 50.2856 56.5068 50.652 55.0546 50.652C53.9381 50.652 52.9482 50.3969 52.0868 49.8888C51.2255 49.3807 50.5605 48.672 50.0916 47.7606C49.6228 46.8491 49.3873 45.8068 49.3873 44.6337C49.3873 43.4605 49.6228 42.4182 50.0916 41.5068C50.5605 40.5953 51.2255 39.8844 52.0868 39.3698C52.9482 38.8552 53.936 38.5979 55.0546 38.5979C56.5068 38.5979 57.7148 38.9664 58.6743 39.7034V39.71Z" fill="#403F3E"/>
<path d="M64.239 40.2638V43.8508H68.5979V45.3249H64.239V48.9947H69.0995V50.5538H62.3267V38.72H69.0995V40.2616H64.239V40.2638Z" fill="#403F3E"/>
<path d="M78.1161 49.021C77.8369 49.5181 77.4117 49.9172 76.8426 50.2203C76.2735 50.5212 75.5735 50.6738 74.7471 50.6738C73.9207 50.6738 73.2207 50.5321 72.584 50.2464C71.9473 49.9608 71.4392 49.5617 71.0576 49.0471C70.6782 48.5325 70.4601 47.9416 70.4034 47.27H72.4488C72.5055 47.7846 72.7257 48.2251 73.1117 48.5936C73.4977 48.9621 74.0144 49.1474 74.6621 49.1474C75.2421 49.1474 75.6935 48.9904 76.0118 48.6786C76.3302 48.3668 76.4894 47.9634 76.4894 47.4728C76.4894 47.0476 76.3716 46.6987 76.1383 46.4261C75.9028 46.1514 75.6128 45.9377 75.2661 45.7807C74.9194 45.6237 74.444 45.4449 73.8422 45.2443C73.1052 45.0088 72.5033 44.7754 72.041 44.5399C71.5766 44.3044 71.1841 43.9643 70.8592 43.5173C70.5343 43.0703 70.3729 42.4837 70.3729 41.7576C70.3729 41.1208 70.5299 40.5626 70.8417 40.0807C71.1536 39.601 71.6006 39.2281 72.1828 38.9665C72.7628 38.7048 73.4344 38.5718 74.1932 38.5718C75.3991 38.5718 76.3585 38.8618 77.0672 39.444C77.7759 40.0262 78.1815 40.785 78.2818 41.7227H76.219C76.1405 41.2757 75.9311 40.8941 75.591 40.5735C75.2508 40.2552 74.7842 40.096 74.1911 40.096C73.6546 40.096 73.2251 40.2334 72.9002 40.5059C72.5753 40.7807 72.4139 41.1732 72.4139 41.6878C72.4139 42.089 72.5251 42.4226 72.7497 42.6843C72.9721 42.946 73.2556 43.1531 73.5958 43.3036C73.9359 43.454 74.4026 43.6307 74.9957 43.8313C75.7436 44.0668 76.3564 44.3044 76.8317 44.5443C77.3071 44.7842 77.7083 45.1331 78.0397 45.591C78.369 46.0489 78.5347 46.6529 78.5347 47.4008C78.5347 47.983 78.3952 48.5216 78.1161 49.0188V49.021Z" fill="#403F3E"/>
<path d="M78.5346 53.5608H5.80676V55H78.5346V53.5608Z" fill="#00AA80"/>
</g>
<defs>
<clipPath id="clip0_3_1572">
<rect width="143.803" height="55" fill="white"/>
</clipPath>
</defs>
</svg>
