<svg width="146" height="56" viewBox="0 0 146 56" fill="none" xmlns="http://www.w3.org/2000/svg">
<g clip-path="url(#clip0_3_1601)">
<path d="M31.0042 0L19.2455 32.5518H12.5153L6.65796 16.277H12.1789L15.8815 26.9275L25.2876 0H31.0042Z" fill="#403F3E"/>
<path d="M6.80311 0.81352H1.09528L0.802856 0H6.51948L6.80311 0.81352Z" fill="#403F3E"/>
<path d="M7.37042 2.44287H1.68237L2.26723 4.06991H7.93548L7.37042 2.44287Z" fill="#403F3E"/>
<path d="M8.50052 5.69678H2.85205L4.02396 8.95086H9.63285L8.50052 5.69678Z" fill="#403F3E"/>
<path d="M11.6116 14.6479H6.0731L4.60876 10.5803H10.1979L11.6116 14.6479Z" fill="#403F3E"/>
<path d="M34.0649 17.0334V20.2985H40.4565V24.4584H34.0649V28.0313H41.2942V32.4133H28.5659V12.6514H41.2942V17.0334H34.0649Z" fill="#403F3E"/>
<path d="M53.5212 32.4133L49.5306 25.1268H48.9721V32.4133H43.4731V12.6514H52.1536C53.7345 12.6514 55.0801 12.9262 56.1882 13.4759C57.2942 14.0256 58.1275 14.7841 58.686 15.7515C59.2444 16.719 59.5237 17.8073 59.5237 19.0166C59.5237 20.393 59.1411 21.5891 58.3781 22.6027C57.6152 23.6163 56.518 24.3287 55.0845 24.7376L59.5786 32.4133H53.5212ZM48.9721 21.444H51.6787C53.2046 21.444 53.9675 20.7558 53.9675 19.3772C53.9675 18.7264 53.7763 18.2141 53.3959 17.8425C53.0133 17.4709 52.4416 17.284 51.6787 17.284H48.9721V21.444Z" fill="#403F3E"/>
<path d="M74.2901 29.1198H67.2828L66.1944 32.4135H60.4163L67.6456 12.7351H73.9822L81.183 32.4135H75.3762L74.2879 29.1198H74.2901ZM72.9225 24.9885L70.8007 18.5683L68.6504 24.9885H72.9203H72.9225Z" fill="#403F3E"/>
<path d="M94.7908 13.39C96.121 14.0145 97.205 14.8983 98.0427 16.0417C98.8804 17.185 99.4476 18.513 99.7445 20.0191H93.9663C93.6497 19.2386 93.1572 18.6273 92.4865 18.1898C91.8159 17.7522 91.0442 17.5346 90.1691 17.5346C88.9598 17.5346 87.9814 17.9853 87.2382 18.889C86.4929 19.7926 86.1213 20.9953 86.1213 22.5036C86.1213 24.0119 86.4929 25.2212 87.2382 26.1315C87.9814 27.044 88.9598 27.4991 90.1691 27.4991C91.0442 27.4991 91.8159 27.2748 92.4865 26.8285C93.1572 26.3821 93.6497 25.7687 93.9663 24.986H99.7445C99.2981 27.2946 98.2406 29.1305 96.5761 30.4981C94.9095 31.8657 92.8032 32.5495 90.2527 32.5495C88.298 32.5495 86.5918 32.1274 85.1297 31.2787C83.6676 30.4322 82.5418 29.2449 81.7525 27.719C80.961 26.1931 80.5652 24.4539 80.5652 22.4992C80.5652 20.5446 80.961 18.8054 81.7525 17.2795C82.544 15.7536 83.6698 14.5685 85.1297 13.7198C86.5896 12.8733 88.298 12.449 90.2527 12.449C91.9457 12.449 93.4584 12.7612 94.7886 13.3834L94.7908 13.39Z" fill="#403F3E"/>
<path d="M107.284 12.6514V32.4133H101.785V12.6514H107.284Z" fill="#403F3E"/>
<path d="M125.399 12.6514V17.0334H120.067V32.4133H114.597V17.0334H109.32V12.6514H125.399Z" fill="#403F3E"/>
<path d="M145.803 12.6514L138.824 26.1338V32.4155H133.354V26.1338L126.375 12.6514H132.657L136.146 20.1885L139.607 12.6514H145.803Z" fill="#403F3E"/>
<path d="M15.2285 39.0444V40.5989H11.8997V50.9768H9.95602V40.5989H6.64258V39.0444H15.2285Z" fill="#403F3E"/>
<path d="M18.3881 40.5992V44.216H22.7833V45.7023H18.3881V49.4028H23.289V50.9748H16.462V39.0425H23.289V40.597H18.3881V40.5992Z" fill="#403F3E"/>
<path d="M33.9373 40.0405C34.9069 40.7837 35.5599 41.7929 35.8985 43.0659H33.8537C33.5723 42.3448 33.1238 41.7731 32.5103 41.351C31.8969 40.9288 31.1449 40.7177 30.2544 40.7177C29.5443 40.7177 28.911 40.8914 28.3526 41.241C27.7941 41.5906 27.3544 42.0897 27.0333 42.7361C26.7123 43.3848 26.5518 44.1411 26.5518 45.0096C26.5518 45.8781 26.7123 46.619 27.0333 47.2655C27.3544 47.9141 27.7941 48.411 28.3526 48.7606C28.911 49.1102 29.5443 49.2839 30.2544 49.2839C31.1449 49.2839 31.8969 49.0728 32.5103 48.6506C33.1238 48.2285 33.5723 47.6612 33.8537 46.951H35.8985C35.5599 48.2241 34.9069 49.2311 33.9373 49.9677C32.9676 50.7064 31.7518 51.0736 30.2874 51.0736C29.1617 51.0736 28.1635 50.8164 27.295 50.3041C26.4265 49.7918 25.7559 49.0772 25.2832 48.1581C24.8105 47.2391 24.573 46.1881 24.573 45.0052C24.573 43.8223 24.8105 42.7713 25.2832 41.8523C25.7559 40.9332 26.4265 40.2164 27.295 39.6975C28.1635 39.1786 29.1595 38.9192 30.2874 38.9192C31.7518 38.9192 32.9698 39.2908 33.9373 40.0339V40.0405Z" fill="#403F3E"/>
<path d="M47.1031 39.0444V50.9768H45.1595V45.6186H39.5484V50.9768H37.6223V39.0444H39.5484V44.0465H45.1595V39.0444H47.1031Z" fill="#403F3E"/>
<path d="M58.8837 50.9768H56.9577L51.1597 42.171V50.9768H49.2336V39.062H51.1597L56.9577 47.9008V39.062H58.8837V50.9768Z" fill="#403F3E"/>
<path d="M69.5387 39.669C70.4335 40.1879 71.1393 40.9112 71.6516 41.8413C72.1639 42.7713 72.4212 43.8223 72.4212 44.9942C72.4212 46.1661 72.1639 47.2171 71.6516 48.1472C71.1393 49.0772 70.4335 49.8028 69.5387 50.3283C68.6438 50.8516 67.6434 51.1132 66.5396 51.1132C65.4359 51.1132 64.4179 50.8516 63.523 50.3283C62.6281 49.805 61.9202 49.0772 61.4013 48.1472C60.8824 47.2171 60.6229 46.1683 60.6229 44.9942C60.6229 43.8201 60.8824 42.7713 61.4013 41.8413C61.9202 40.9112 62.6259 40.1879 63.523 39.669C64.4201 39.1501 65.4249 38.8906 66.5396 38.8906C67.6544 38.8906 68.6438 39.1501 69.5387 39.669ZM64.4926 41.2081C63.8946 41.5576 63.4307 42.059 63.0987 42.712C62.7667 43.365 62.5996 44.1257 62.5996 44.9942C62.5996 45.8627 62.7667 46.6235 63.0987 47.2765C63.4307 47.9295 63.8946 48.4308 64.4926 48.7804C65.0907 49.13 65.7723 49.3037 66.5374 49.3037C67.3026 49.3037 67.9666 49.13 68.558 48.7804C69.1495 48.4308 69.6112 47.9295 69.9432 47.2765C70.2752 46.6235 70.4423 45.8627 70.4423 44.9942C70.4423 44.1257 70.2752 43.3672 69.9432 42.712C69.6112 42.059 69.1495 41.5576 68.558 41.2081C67.9666 40.8585 67.2938 40.6848 66.5374 40.6848C65.7811 40.6848 65.0885 40.8607 64.4926 41.2081Z" fill="#403F3E"/>
<path d="M76.0885 49.4709H80.2133V50.9748H74.1625V39.0425H76.0885V49.4709Z" fill="#403F3E"/>
<path d="M90.0394 39.669C90.9343 40.1879 91.64 40.9112 92.1523 41.8413C92.6646 42.7713 92.9219 43.8223 92.9219 44.9942C92.9219 46.1661 92.6646 47.2171 92.1523 48.1472C91.64 49.0772 90.9343 49.8028 90.0394 50.3283C89.1445 50.8516 88.1441 51.1132 87.0404 51.1132C85.9366 51.1132 84.9186 50.8516 84.0237 50.3283C83.1289 49.805 82.4209 49.0772 81.902 48.1472C81.3831 47.2171 81.1237 46.1683 81.1237 44.9942C81.1237 43.8201 81.3831 42.7713 81.902 41.8413C82.4209 40.9112 83.1267 40.1879 84.0237 39.669C84.9208 39.1501 85.9256 38.8906 87.0404 38.8906C88.1551 38.8906 89.1445 39.1501 90.0394 39.669ZM84.9934 41.2081C84.3953 41.5576 83.9314 42.059 83.5994 42.712C83.2674 43.365 83.1003 44.1257 83.1003 44.9942C83.1003 45.8627 83.2674 46.6235 83.5994 47.2765C83.9314 47.9295 84.3953 48.4308 84.9934 48.7804C85.5914 49.13 86.273 49.3037 87.0382 49.3037C87.8033 49.3037 88.4673 49.13 89.0588 48.7804C89.6502 48.4308 90.112 47.9295 90.444 47.2765C90.776 46.6235 90.9431 45.8627 90.9431 44.9942C90.9431 44.1257 90.776 43.3672 90.444 42.712C90.112 42.059 89.6502 41.5576 89.0588 41.2081C88.4673 40.8585 87.7945 40.6848 87.0382 40.6848C86.2818 40.6848 85.5892 40.8607 84.9934 41.2081Z" fill="#403F3E"/>
<path d="M103.671 39.9899C104.617 40.6891 105.243 41.6412 105.547 42.8461H103.52C103.26 42.204 102.836 41.6917 102.244 41.307C101.653 40.9222 100.952 40.7331 100.14 40.7331C99.397 40.7331 98.7286 40.9068 98.1372 41.2564C97.5457 41.606 97.084 42.1007 96.752 42.7427C96.42 43.3847 96.2529 44.1389 96.2529 45.0074C96.2529 45.9198 96.4222 46.7026 96.7608 47.3556C97.0994 48.0086 97.5743 48.5077 98.1899 48.8507C98.8034 49.1937 99.5158 49.3652 100.327 49.3652C101.319 49.3652 102.17 49.0574 102.88 48.444C103.59 47.8305 104.019 46.9884 104.164 45.9176H99.7862V44.4973H105.786V46.3398C105.65 47.2193 105.338 48.0152 104.848 48.732C104.357 49.4466 103.709 50.0204 102.904 50.447C102.099 50.8757 101.178 51.089 100.14 51.089C98.9793 51.089 97.9547 50.8295 97.0642 50.3107C96.1737 49.7918 95.4855 49.075 95.0018 48.1559C94.5181 47.2369 94.274 46.1859 94.274 45.003C94.274 43.8201 94.5159 42.7691 95.0018 41.85C95.4855 40.931 96.1715 40.2164 97.0554 39.7041C97.9393 39.1918 98.9617 38.9346 100.123 38.9346C101.543 38.9346 102.726 39.2842 103.671 39.9834V39.9899Z" fill="#403F3E"/>
<path d="M109.452 39.0444V50.9768H107.526V39.0444H109.452Z" fill="#403F3E"/>
<path d="M113.508 40.5992V44.216H117.904V45.7023H113.508V49.4028H118.409V50.9748H111.58V39.0425H118.409V40.597H113.508V40.5992Z" fill="#403F3E"/>
<path d="M127.501 49.429C127.219 49.9303 126.791 50.3327 126.217 50.6383C125.643 50.9417 124.937 51.0956 124.104 51.0956C123.271 51.0956 122.565 50.9527 121.923 50.6647C121.281 50.3766 120.768 49.9743 120.384 49.4554C120.001 48.9365 119.781 48.3406 119.724 47.6634H121.786C121.844 48.1823 122.066 48.6265 122.455 48.9981C122.844 49.3696 123.365 49.5565 124.018 49.5565C124.603 49.5565 125.058 49.3982 125.379 49.0838C125.7 48.7694 125.861 48.3626 125.861 47.8679C125.861 47.4392 125.742 47.0874 125.507 46.8125C125.269 46.5377 124.977 46.32 124.627 46.1617C124.278 46.0034 123.798 45.8231 123.191 45.6209C122.448 45.3834 121.841 45.1481 121.375 44.9107C120.907 44.6732 120.511 44.3302 120.184 43.8795C119.856 43.4287 119.693 42.8373 119.693 42.1051C119.693 41.4631 119.852 40.9002 120.166 40.4143C120.48 39.9306 120.931 39.5546 121.518 39.2908C122.103 39.0269 122.78 38.8928 123.545 38.8928C124.761 38.8928 125.729 39.1852 126.443 39.7723C127.158 40.3594 127.567 41.1245 127.668 42.0699H125.588C125.509 41.6192 125.298 41.2344 124.955 40.9112C124.612 40.5902 124.141 40.4297 123.543 40.4297C123.002 40.4297 122.569 40.5682 122.242 40.8431C121.914 41.1201 121.751 41.5159 121.751 42.0348C121.751 42.4393 121.863 42.7757 122.09 43.0396C122.314 43.3056 122.6 43.5123 122.943 43.664C123.286 43.8157 123.756 43.9938 124.354 44.1961C125.109 44.4336 125.726 44.6732 126.206 44.9151C126.685 45.1569 127.09 45.5087 127.424 45.9704C127.756 46.4322 127.923 47.0412 127.923 47.7954C127.923 48.3824 127.782 48.9255 127.501 49.4268V49.429Z" fill="#403F3E"/>
<path d="M127.923 54.0066H6.65796V55.4577H127.923V54.0066Z" fill="#DC8F27"/>
</g>
<defs>
<clipPath id="clip0_3_1601">
<rect width="145" height="55.4579" fill="white" transform="translate(0.802856)"/>
</clipPath>
</defs>
</svg>
